<svg xmlns="http://www.w3.org/2000/svg" viewBox="0 0 144.75 186.04"><defs><style>.cls-1{fill:#e1ecc8;opacity:0.5;}.cls-2{fill:none;stroke:#000;stroke-linecap:round;stroke-linejoin:round;}</style></defs><g id="Layer_2" data-name="Layer 2"><g id="OBJECTS"><path class="cls-1" d="M92.16,58.45c-1.51,15.68-3.49,31.36-6.51,46.83a261.64,261.64,0,0,1-13.17,46.28c-3.21,8.13-7.84,22.3-17,25.74a5.84,5.84,0,0,1-5.85,1.94C18.42,172.66-3.42,142.77.44,110.94,2.24,96.1,9.9,83.65,17,70.85a92.47,92.47,0,0,0,8.71-20.18c2.06-7.4,3.33-15,5.81-22.31C35.78,15.94,44.71,3.25,58.41.49c13.37-2.7,25.42,6,30.68,18C94.63,31,93.44,45.14,92.16,58.45Z"/><path d="M73.63,162a25.11,25.11,0,0,0-3.95-2.78,5,5,0,0,0-2.64-.7c-2.08.14-3.91,1.9-5.58,3a9.44,9.44,0,0,1-4.08,1.84,40.27,40.27,0,0,1-4.1-.25,57.15,57.15,0,0,0-8.27.26c-2.94.33-6.22.84-8.68,2.61a.52.52,0,0,0-.17.69c1.9,2.5,5.43,2.58,8.3,2.53,1.57,0,3.15-.16,4.72-.1a42.21,42.21,0,0,1,6.42.9c2.32.44,4.63,1,6.92,1.54,2,.49,4,1.3,6,1.77a6.51,6.51,0,0,0,5.44-.91,5.71,5.71,0,0,0,1.94-2.91c.48-1.34.74-2.76,1.27-4.09.46-1.16,1.2-2.21,2.58-2l-.35-.35c.58,2.61-1.18,5-1.28,7.54-.07,1.72.63,4.17,2.47,4.77,2.08.67,4.1-1.72,4.38-3.57.34-2.19-1.17-4.29-.66-6.46.47-2,2.44-3,4.2-3.6a37.94,37.94,0,0,1,5.89-1.19c4.75-.73,9.39-2,14.17-2.61s10.3-.77,14.69,1.75a4.85,4.85,0,0,1,2.18,1.92c.34.82-.66,1.2-1.29,1.38-2.12.61-4.29-.14-6.3-.82a37.78,37.78,0,0,0-6.47-2,34.34,34.34,0,0,0-5.27-.26,39.25,39.25,0,0,0-12.65,1.75A10.08,10.08,0,0,0,89,164.29a7.89,7.89,0,0,0-1.7,5.23,9.12,9.12,0,0,0,1.8,5.33,7.47,7.47,0,0,0,5.21,2.65,46.64,46.64,0,0,0,7.75-.14c2.92-.11,5.86.17,8.78.17a75.21,75.21,0,0,0,15-1.73c7.15-1.46,16.65-4.06,18.63-12.21a7.23,7.23,0,0,0-1.71-6.8,16.38,16.38,0,0,0-7.17-4,58.23,58.23,0,0,0-16.82-2.25c-4.75,0-9.37,1.21-14.09,1.41a17.14,17.14,0,0,1-3.72-.2c-.49-.09-1.52-.18-1.68-.78a7.82,7.82,0,0,1,.08-1.36,3.1,3.1,0,0,0-.75-1.88c-1.54-1.9-3.83-1.14-5.86-.66a19.19,19.19,0,0,1-4.28.35c-1.59,0-3.19-.07-4.78-.16-6.45-.37-12.9-.48-19.36-.6-1.58,0-3.16,0-4.74-.1-1.23-.05-2.45-.26-3.67-.37a8.71,8.71,0,0,0-3.41.23,3.53,3.53,0,0,0-2,1.05c-.3.43-.4,1-.73,1.4a3.3,3.3,0,0,0-.71,1.1c-.11.38-.07.78-.17,1.16-.28,1-1.42,1.3-2.34,1.38a21.9,21.9,0,0,1-3.24,0,66,66,0,0,0-11.75.68,79.43,79.43,0,0,0-13.41,2.6c-3.84,1.15-7.78,2.7-10.83,5.37a7.06,7.06,0,0,0-2.59,5.3,13.47,13.47,0,0,0,1.82,6.22,62.09,62.09,0,0,0,3.72,5.94,33.52,33.52,0,0,0,3.34,4.75,8.11,8.11,0,0,0,4.84,2.22,50.92,50.92,0,0,0,8.82.29c3-.1,6-.28,9-.25,3.23,0,6.45.18,9.68.27a180.06,180.06,0,0,0,19.16-.25,45.38,45.38,0,0,0,8.9-1.43c2.9-.83,5.75-1.79,8.8-1.82,4.77-.05,9.36,1.52,14.1,1.76,2.31.11,4.64.09,7,0a35,35,0,0,0,8-1c1.39-.4,3.69-1.27,3.24-3.14a4.66,4.66,0,0,0-1.85-2.33,12.42,12.42,0,0,0-6.37-2.51c-2.83-.35-5.55-.47-8.08-1.95-2.27-1.34-4.25-3.08-6.68-4.16s-5.29-2.07-8-1.47a6.51,6.51,0,0,0-4.47,3.75,11,11,0,0,1-1.43,2.31,4.85,4.85,0,0,1-3.38,1.59c-2.5.15-4.91-.87-7.41-.81a.5.5,0,0,0-.35.85c1.69,1.77,3.57,5.41.55,6.86l.68.18A50.34,50.34,0,0,0,65,177.86a13.58,13.58,0,0,0-5.12-3.12c-4-1.56-8.21-2.49-12-4.5-2.53-1.34-5-2.78-7.56-4.09a40.32,40.32,0,0,0-8.56-3.5c-2.17-.53-5.21-.81-6.38,1.58a.51.51,0,0,0,.18.68c3.19,2.36,7.1-.11,10.2-1.34,4.46-1.76,9.35-2.31,14.05-3.06,3.39-.54,6.82-1.21,9.82-2.95a20,20,0,0,0,4.06-3.16,15.14,15.14,0,0,0,2-2.27A17,17,0,0,0,67,149.5c.81-1.9,1.69-4,3.8-4.7,1.71-.57,3.47-.59,4.83-1.94a3.88,3.88,0,0,0,1-3.89,3.64,3.64,0,0,0-2.25-2.44c-1.16-.34-1.9.43-2.29,1.44a1.9,1.9,0,0,0,.41,2.42,3.75,3.75,0,0,0,2.6.18,17.27,17.27,0,0,0,2.85-.83c2.53-1,5-2.18,7.72-1.24a12.21,12.21,0,0,1,3.59,2.21c1.26,1,2.49,2.09,3.82,3a23.21,23.21,0,0,0,2.34,1.43.5.5,0,0,0,.5,0,3.38,3.38,0,0,0,1.61-3.09,8.72,8.72,0,0,0-1.45-3.62A13.73,13.73,0,0,1,94.28,135a15.83,15.83,0,0,1,0-4.81c.17-2.53.06-5.37-2.53-6.61-2.19-1-4.87-1-7.23-.83-2.85.17-5.67.62-8.48,1a26.14,26.14,0,0,1-6,.4c-2.49-.21-5-.57-7.47-.78a21.17,21.17,0,0,0-7,.17,3,3,0,0,0-1.92,1.27,6.78,6.78,0,0,0-.32,3.71,13.22,13.22,0,0,1,0,4,18.71,18.71,0,0,1-2.2,4.76,14,14,0,0,0-1.68,4.21c-.11.68-.09,1.62.71,1.86a2.76,2.76,0,0,0,2.13-.75,13.75,13.75,0,0,0,2.61-2.56,26.82,26.82,0,0,0,2.49-3.84,13.28,13.28,0,0,0,1.72-4.35c.21-1.48-.44-3-.67-4.39A3,3,0,0,1,60,124.26c2.15-1.31,5.08-.89,7.48-1.12a6.81,6.81,0,0,0,5.13-2.54,16,16,0,0,0,2.57-5.77,44.05,44.05,0,0,0,1.21-7.57A64.84,64.84,0,0,0,76,92.2a21.06,21.06,0,0,0-.48-2.39.5.5,0,0,0-.83-.22c-6,4.75-2.88,13.5-6.21,19.54-1.56,2.81-4.63,4.29-7.54,5.31a53.21,53.21,0,0,1-11,2.42,88.13,88.13,0,0,1-11,.73l.48.37c-.51-3.16,1.35-6.07,3.15-8.49,2-2.7,4.38-5.18,6-8.14A10.89,10.89,0,0,0,50,96.56a.5.5,0,0,0-.63-.48,7.43,7.43,0,0,0-4.66,3.64l.87.51a14.46,14.46,0,0,0,1-2.46,4.86,4.86,0,0,1,1.24-2.36,6.07,6.07,0,0,1,3.14-.86,5.54,5.54,0,0,0,2.79-1c2.72-2.18,3.29-6.33,3.14-9.58a14.72,14.72,0,0,0-1.22-5.51.49.49,0,0,0-.56-.23c-4,.71-8.28.79-11.66,3.36a23.86,23.86,0,0,0-6.5,8.54c-2.9,5.84-4.41,12.24-7.2,18.13-1.1,2.33-2.26,4.63-3.27,7A25.06,25.06,0,0,0,24.37,122a6.34,6.34,0,0,0,1.31,5.17c1.62,1.75,4.29,2.11,6.55,2.16,4.38.09,8.31-1.51,12.34-3,4.37-1.66,9-2.5,13.41-3.93,1.94-.63,3.79-1.55,5.74-2.12a30.39,30.39,0,0,1,4.75-.9c3-.39,6.26-.59,9-2a6.43,6.43,0,0,0,2.84-2.57,5.63,5.63,0,0,0,.51-1.71,42.28,42.28,0,0,0,.53-6.35c.08-2.65.06-5.29-.08-7.93a40.8,40.8,0,0,0-.74-6.53c-.18-.85-.57-2.78-1.82-2.52S77,92,76.74,93.13a41.89,41.89,0,0,0-.75,7.08c-.11,2.69-.11,5.4,0,8.1.05,2,.12,3.93.3,5.88s.62,4.55,2.69,5.5a10.1,10.1,0,0,0,3.4.64c2.13.18,4.25.42,6.36.78A109.32,109.32,0,0,1,101.34,124c4.47,1.3,8.84,3,13.46,3.69,3.42.55,8.89.92,10-3.39a8.24,8.24,0,0,0,0-3.39,28,28,0,0,0-1.51-5.39,85.83,85.83,0,0,0-5.55-11.36c-1.89-3.37-3.93-6.71-5.52-10.24-1.36-3-2.48-6.18-3.93-9.18-1.28-2.62-2.86-5.55-5.41-7.14a7.33,7.33,0,0,0-4.77-1.3c-3,.42-4.36,3.65-4.86,6.29a22.62,22.62,0,0,0,.61,10.5c.67,2.22,2.09,5.55,4.87,5.59a5,5,0,0,0,3.46-1.77h-.7a27.34,27.34,0,0,1,3.87,4.44c1.83,2.32,3.59,4.72,5.19,7.21a30.52,30.52,0,0,1,1.86,3.24A7,7,0,0,1,113,113a2.83,2.83,0,0,1,.14.73c0,.1,0,.08-.06.13a.86.86,0,0,1-.26.18,4.07,4.07,0,0,1-1.07.35,21,21,0,0,1-3.44.39c-2.94.15-5.89.07-8.82-.06-1.87-.08-3.78-.11-5.63-.35A32.47,32.47,0,0,1,87,112.7c-.5-.19-1.88-.65-2-1.21,0,0,0,0,0-.08a1.26,1.26,0,0,1,.42-.34,4,4,0,0,1,2.07-.56c2.55,0,5.18,2.68,7.68,1A7.66,7.66,0,0,0,98,107.1a6.36,6.36,0,0,0-.41-4.21c-1.28-2.76-4-4.52-5.51-7.1-2.27-3.83-1.12-8-.18-12A16.89,16.89,0,0,0,92.46,78a8.07,8.07,0,0,0-1-3.47c-1.11-1.66-2.31.49-2.72,1.49a41.29,41.29,0,0,0-1.91,6.84c-.5,2.26-.93,4.52-1.35,6.8a12.8,12.8,0,0,1-1.29,4.14,6.55,6.55,0,0,1-3.64,2.76,17.65,17.65,0,0,1-11.44.06,14.48,14.48,0,0,1-8.5-7.35,11,11,0,0,1-.42-5.22,25.47,25.47,0,0,0,.18-5.16,5.18,5.18,0,0,0-2-3.68.49.49,0,0,0-.68.18,4.77,4.77,0,0,0-.54,1.85c0,.4.45.58.75.43,3.19-1.62,6.55-3.42,8.89-6.19a7.93,7.93,0,0,0,.87-9.84c-.32-.56-1.16-.06-.86.51,2.67,5.19,9.55,6.67,14.81,5.16a9.14,9.14,0,0,0,5.88-4.41,22.53,22.53,0,0,0,1.18-4.44,18.23,18.23,0,0,1,.89-2.8,14.6,14.6,0,0,1,1.32-2.22c.89-1.34,1.63-2.78,1.19-4.41a16.66,16.66,0,0,0-2.44-4.5,21.84,21.84,0,0,1-1.28-2.13c-.39-.8-.58-1.69-.9-2.52a14.21,14.21,0,0,0-2.41-4.19,8.49,8.49,0,0,0-6.69-3,13.76,13.76,0,0,0-7.51,2.87,22.89,22.89,0,0,0-6.17,6.79,28,28,0,0,1-1.45,2.47,22.93,22.93,0,0,1-1.88,1.94,5.4,5.4,0,0,1-1.69,1.43,3.48,3.48,0,0,0-1.4,1,2.87,2.87,0,0,0-.37,2.07c.07.63,1.07.64,1,0s-.11-1.35.48-1.77,1-.48,1.47-.79a12.77,12.77,0,0,0,1.56-1.56,14.44,14.44,0,0,0,1.69-1.81c1-1.3,1.6-2.82,2.56-4.14a23.23,23.23,0,0,1,2.91-3.28c3.43-3.18,9-6,13.35-2.83a9.65,9.65,0,0,1,2.65,3.1c.82,1.44,1.15,3,1.84,4.53a40.53,40.53,0,0,0,2.52,4.12c.7,1.13,1.67,2.66,1.19,4-.54,1.59-1.77,2.82-2.43,4.35a25.78,25.78,0,0,0-1.41,4.94A7.57,7.57,0,0,1,86,63.46a7.73,7.73,0,0,1-2.7,2.15c-4.5,2.27-11.15,1.61-14.53-2.34a8.81,8.81,0,0,1-1.07-1.63l-.86.51a7.53,7.53,0,0,1,1.06,5.17,8.41,8.41,0,0,1-2.22,4c-2.28,2.42-5.31,4-8.24,5.53l.75.43a3.4,3.4,0,0,1,.4-1.35l-.68.18c1.36,1,1.58,2.76,1.57,4.36,0,1.84-.34,3.66-.36,5.5a8.78,8.78,0,0,0,1.23,4.88,16,16,0,0,0,3.87,4.3A17.21,17.21,0,0,0,74.7,98.53c3.32,0,7.61-.67,9.81-3.42,1.89-2.36,2-5.73,2.59-8.57.43-2.07.84-4.14,1.36-6.19.3-1.15.61-2.31,1-3.43a6,6,0,0,1,1-2c.07-.07,0-.08.09,0a5.68,5.68,0,0,1,.47,1.09,12.45,12.45,0,0,1,.29,5.53c-.66,4-2.36,7.95-1.21,12.08a12.12,12.12,0,0,0,2.48,4.5c1,1.2,2.16,2.29,3.11,3.55a6.29,6.29,0,0,1,1.49,4,6.81,6.81,0,0,1-2.47,4.94c-1.19.81-2.58.21-3.76-.26a8.09,8.09,0,0,0-4.17-.84c-.9.12-2.39.6-2.72,1.59-.26.8.44,1.41,1.05,1.78,2,1.22,4.63,1.67,6.91,2.1a41.38,41.38,0,0,0,5.22.52c2.91.16,5.82.27,8.74.24,1.37,0,2.74-.07,4.11-.21a10,10,0,0,0,2.92-.63c1.67-.75.87-2.49.26-3.74a47.65,47.65,0,0,0-4.43-7c-1.62-2.24-3.31-4.44-5.12-6.52a12.37,12.37,0,0,0-1.51-1.56.5.5,0,0,0-.7,0,3.9,3.9,0,0,1-3,1.47,3.58,3.58,0,0,1-2.29-1.73c-1.68-2.51-2.2-5.85-2.29-8.81-.09-2.78.14-6.29,2-8.52,2.13-2.5,5.74-1.06,7.72.91,2.2,2.17,3.55,5.17,4.77,8s2.22,5.63,3.58,8.33c3.53,7,8.16,13.62,10.71,21.12a21.83,21.83,0,0,1,1.17,4.83,5.84,5.84,0,0,1-.31,2.84,4.42,4.42,0,0,1-3.81,2.34,20.5,20.5,0,0,1-6.43-.52c-2.33-.49-4.63-1.15-6.9-1.86-1.82-.56-3.63-1.19-5.47-1.69A116.66,116.66,0,0,0,88,120c-1.85-.29-3.71-.5-5.58-.65a8.32,8.32,0,0,1-3.17-.61c-1.74-.9-1.91-3.33-2.05-5.07A110.34,110.34,0,0,1,77,100.05a39.79,39.79,0,0,1,.71-6.71,7.46,7.46,0,0,1,.69-2.06,1.91,1.91,0,0,1,.36-.47,1,1,0,0,1,.17-.09s0,0,0,0,0,0,0,0a1.41,1.41,0,0,1,.14.2,3.71,3.71,0,0,1,.27.68,15.16,15.16,0,0,1,.48,2.3,56.83,56.83,0,0,1,.53,6.77c.07,2.47.07,4.94,0,7.41a27.8,27.8,0,0,1-.59,5.39c-.49,2-2.61,3.09-4.51,3.66-3,.87-6.06,1-9.08,1.49a18.16,18.16,0,0,0-4.1,1.11A59.9,59.9,0,0,1,55.69,122c-2.14.62-4.3,1.16-6.45,1.72a59.15,59.15,0,0,0-6.11,2c-3.78,1.46-7.51,2.76-11.62,2.52-2-.11-4.33-.54-5.49-2.3-1-1.49-.82-3.44-.46-5.1a32.48,32.48,0,0,1,2.35-6.56c1-2.22,2.1-4.38,3.12-6.59,1.13-2.45,2-5,2.9-7.53a80.41,80.41,0,0,1,4-9.89c1.56-3.07,3.56-6.24,6.44-8.23,3.22-2.22,7.25-2.27,11-2.93l-.56-.23a15.23,15.23,0,0,1,.58,10A6.9,6.9,0,0,1,52.72,93c-1.72,1.06-4,.36-5.61,1.69s-1.51,3.49-2.42,5.06a.5.5,0,0,0,.87.51,6.39,6.39,0,0,1,4.06-3.18L49,96.56c-.15,3.25-2.33,6.06-4.27,8.51-2.05,2.6-4.38,5.15-5.67,8.25a8.87,8.87,0,0,0-.64,4.9.49.49,0,0,0,.48.37,91.7,91.7,0,0,0,9.8-.58,61.16,61.16,0,0,0,11.22-2.19c3-.91,6.19-2.18,8.27-4.57,2.35-2.7,2.74-6.42,3.09-9.84.41-4,.72-8.45,4.1-11.12l-.84-.22a47.57,47.57,0,0,1,1,12.54c-.08,4.8-.45,9.86-2.17,14.37a8.88,8.88,0,0,1-2.87,4.23c-1.87,1.29-4.56,1-6.71,1.13s-4.62.53-5.86,2.53a4.27,4.27,0,0,0-.33,3.43c.32,1.5.78,2.84.31,4.35a25.29,25.29,0,0,1-4.47,7.58,8.7,8.7,0,0,1-2.43,2c-.59.28-.67.2-.59-.48a12.9,12.9,0,0,1,1.8-4.34,19.86,19.86,0,0,0,2-4.17,9.56,9.56,0,0,0,.2-3.65,11.34,11.34,0,0,1,0-3.94c.45-1.63,3.3-1.46,4.59-1.46a64.06,64.06,0,0,1,7.45.56,34.13,34.13,0,0,0,5.61.44c2.31-.12,4.61-.56,6.9-.88a49.18,49.18,0,0,1,8.13-.66c1.89,0,4.56.23,5.64,2.07a7.36,7.36,0,0,1,.53,4.23,24,24,0,0,0-.08,4.4c.33,2.59,2.35,4.39,3.16,6.79a2.5,2.5,0,0,1-.89,3.14h.5c-2.72-1.44-4.85-3.59-7.34-5.35a8.66,8.66,0,0,0-7.54-1.44c-1.94.52-3.57,1.48-5.53,2a3.88,3.88,0,0,1-2.4.13c-.61-.34-.09-1.58.26-1.94.68-.71,1.73.45,2,1a2.85,2.85,0,0,1-.68,3.62c-1.33,1.2-3.18,1.07-4.74,1.74a7,7,0,0,0-3.42,3.86,17.76,17.76,0,0,1-2.68,4.84,21.87,21.87,0,0,1-3.85,3.4,22.79,22.79,0,0,1-8.69,3.11c-4.76.86-9.59,1.35-14.23,2.81-1.91.6-3.67,1.52-5.54,2.2s-3.84,1.05-5.53-.2l.18.68c.94-1.9,3.42-1.55,5.13-1.15a37.69,37.69,0,0,1,8.16,3.29c2.49,1.26,4.91,2.65,7.36,4a66.89,66.89,0,0,0,10.16,3.93c2.33.79,4.85,1.59,6.7,3.27a33.16,33.16,0,0,1,3.73,4.76.51.51,0,0,0,.68.18c3.68-1.76,1.79-6.19-.35-8.42l-.35.85c2.54-.06,5,1,7.52.81a6.17,6.17,0,0,0,5-3.3c.45-.78.81-1.62,1.32-2.37a4.79,4.79,0,0,1,2.65-1.89c2.81-.83,5.82.31,8.34,1.5,2.31,1.09,4.19,2.84,6.41,4.07s4.77,1.55,7.34,1.82a12.19,12.19,0,0,1,6.75,2.43c.57.46,1.45,1.21,1.46,1.94,0,.51-.53.92-1.09,1.2a11.13,11.13,0,0,1-2.93.88,47,47,0,0,1-7.94.7c-2,0-4,.06-6-.09-5.35-.42-10.56-2.31-16-1.52-2.81.42-5.48,1.45-8.24,2.12A50.71,50.71,0,0,1,63,184.8c-6.25.37-12.51.23-18.76,0-3.08-.09-6.18-.25-9.27-.22-2.92,0-5.85.22-8.78.28a35.92,35.92,0,0,1-8.35-.46,6.76,6.76,0,0,1-4.17-2.71c-1.23-1.67-2.31-3.47-3.46-5.19a34.88,34.88,0,0,1-3.43-6c-.79-1.91-1.32-4.12-.54-6.13s2.47-3.15,4.11-4.17A38.2,38.2,0,0,1,22,155.84a95.71,95.71,0,0,1,13.16-2c1.9-.17,3.8-.31,5.71-.39s3.72.25,5.58.13,3.34-.84,3.58-2.82c.1-.84.77-1.31,1.11-2.06.21-.47.26-.71.75-.94,2.22-1.05,4.69-.4,7-.19,3,.26,6,.15,9,.21,3.18.05,6.35.12,9.52.23s6.1.34,9.16.44a43,43,0,0,0,4.54-.08,22,22,0,0,0,3.31-.63c1.16-.26,2.39-.45,3.28.5a2.27,2.27,0,0,1,.67,1.7,4.23,4.23,0,0,0,0,1.42,1.76,1.76,0,0,0,1.13,1.08c2.07.82,4.62.64,6.78.45,4.32-.38,8.56-1.35,12.91-1.29a75.35,75.35,0,0,1,7.65.49,45,45,0,0,1,8.89,1.84c2.41.79,5,1.91,6.63,3.9a6.6,6.6,0,0,1,.76,6.84c-1.44,3.67-4.7,6-8.21,7.48a54.26,54.26,0,0,1-11.7,3.16,69.41,69.41,0,0,1-7.18,1.06,84.83,84.83,0,0,1-9.16.11c-1.39,0-2.79-.14-4.18-.12-1.21,0-2.41.13-3.61.2-2.45.15-5.21.32-7.46-.83-3.31-1.69-4.19-6.77-2.49-9.85a7.59,7.59,0,0,1,4.13-3.15,27.07,27.07,0,0,1,6-1.43,48.14,48.14,0,0,1,11.63-.27,28.86,28.86,0,0,1,6.14,1.82c1.87.65,3.94,1.44,6,1.29,1.31-.09,3.74-.66,3.56-2.43s-2.57-3-4-3.59c-4.39-2-9.42-1.83-14.09-1.25s-9.11,1.79-13.69,2.54c-3.43.56-8,.76-10.4,3.66-1.38,1.65-1.24,3.57-.75,5.54a6.81,6.81,0,0,1,.33,3.22c-.27,1.07-1.37,2.52-2.58,2.58-.92,0-1.55-.9-1.86-1.65a5.47,5.47,0,0,1-.26-3.2c.46-2.33,1.66-4.41,1.12-6.85a.48.48,0,0,0-.35-.35c-2.61-.36-3.61,1.9-4.24,4a24,24,0,0,1-1.17,3.6,4.48,4.48,0,0,1-3.74,2.49c-2,.15-3.9-.77-5.75-1.35-2.13-.67-4.36-1.12-6.55-1.59A47.28,47.28,0,0,0,46.94,168a43.09,43.09,0,0,1-5.45,0c-1.61-.16-3.43-.59-4.47-1.95l-.18.69c2.13-1.54,4.92-2.07,7.47-2.4a53.62,53.62,0,0,1,8.21-.36c1.27,0,2.52.16,3.79.26a6.64,6.64,0,0,0,3.48-.69,31.78,31.78,0,0,0,3.81-2.36,14,14,0,0,1,2.5-1.5,3.21,3.21,0,0,1,2.54.06,19.06,19.06,0,0,1,4.28,2.89c.5.4,1.21-.3.71-.71Z"/><path class="cls-2" d="M58.41,51.24c1.09,6.83,1.52,2.65,6.53,6.91,1.14,1-3.93-12.4,1.43-20.71s18.93-8.78,22.58,2c2.09-5-3-16.06-13.38-16.06s-15.85,4.47-16.3,18.16"/></g></g></svg>