<svg xmlns="http://www.w3.org/2000/svg" viewBox="0 0 512.12 493.85"><g id="Layer_2" data-name="Layer 2"><g id="_02" data-name="02"><path d="M419.35,391.56c-2.12-.12-8.65.5-8,2.79.82,2.69,6,3.61,8.27,4.16l.39.09a18.92,18.92,0,0,1-.58-2.63A18.56,18.56,0,0,1,419.35,391.56Z"/><path d="M148.91,20.38a5.18,5.18,0,0,1-1.17-2.57,5.77,5.77,0,0,1-2.25,2,5.22,5.22,0,0,1,1.17,2.57A5.77,5.77,0,0,1,148.91,20.38Z"/><path d="M216.15,340.62c-4.92-2.82-10.15-3.48-15.73-3.88a28.61,28.61,0,0,0-11.93,1.48,35.91,35.91,0,0,0-18,15.38c-5.41,9-7.82,20.11-4.41,30.28.25.73.52,1.45.82,2.16a81.1,81.1,0,0,0,13.34,3.06c12.1,1.75,24.42,1.49,36.59.84,4.68-.25,9.39-.36,14.05-.79l2.73-.27a29.51,29.51,0,0,0,3.19-12.94,43.33,43.33,0,0,0-3.51-17A40.77,40.77,0,0,0,216.15,340.62Z"/><path d="M465.23,401.86a3.56,3.56,0,0,0,0-2.79c-.83-2.3-3-3.12-5.29-3.4a18,18,0,0,1-1.28,7,10.94,10.94,0,0,1-.77,1.53c.49,0,1,0,1.47-.06C461.14,404,464.26,403.75,465.23,401.86Z"/><path d="M113.44,366a4.53,4.53,0,0,1,1,2.24,4.94,4.94,0,0,1,2-1.74,4.5,4.5,0,0,1-1-2.24A5,5,0,0,1,113.44,366Z"/><path d="M432.61,138.72a5.18,5.18,0,0,1-1.17-2.57,5.77,5.77,0,0,1-2.25,2,5.09,5.09,0,0,1,1.17,2.57A5.84,5.84,0,0,1,432.61,138.72Z"/><path d="M87.74,394.7c-.54-.55-2-1.52-2.21-2.28s.42-1.84.56-2.45,1-3,.39-3.62c-1-.87-4.5,2.41-5.32,3a.32.32,0,0,1-.38-.05c-.89-.87-2.62-2.21-3.93-2.15-2.11.11.49,4.09,1,4.83a.31.31,0,0,1-.19.46c-1.18.28-5,1.79-4.86,3.37s5.1.86,6.16.76a.3.3,0,0,1,.3.23,19.09,19.09,0,0,0,1.16,3.62c.44.9,1.3,2.34,2,.81a12.29,12.29,0,0,0,.89-4.16.31.31,0,0,1,.32-.31,29.88,29.88,0,0,0,3.67.21c1.08,0,2.15-.53,1.12-1.61Z"/><path d="M241.45,367.65a45.8,45.8,0,0,1,1.12,9.15,28,28,0,0,1-2.37,10.94,23.24,23.24,0,0,0,7.11-2.29c3.61-1.95,6.39-5.57,4.28-9.75A15.74,15.74,0,0,0,241.45,367.65Z"/><path d="M454,403h0a88,88,0,0,1-16.12-1.31l-.21,0c-4.62-.72-9.4-1.47-13.52-3.42a1.62,1.62,0,0,0-2.23,1.12,1.33,1.33,0,0,0,.78,1.54c4.47,2.12,9.5,2.94,14.37,3.73l.11,0a93.75,93.75,0,0,0,15.07,1.41l1.78,0a1.52,1.52,0,0,0,1.47-1.58A1.43,1.43,0,0,0,454,403Z"/><path d="M150.51,422.77a4.92,4.92,0,0,1,1.11,2.44,5.5,5.5,0,0,1,2.14-1.9,4.9,4.9,0,0,1-1.12-2.43A5.53,5.53,0,0,1,150.51,422.77Z"/><path d="M466.19,221.37c-.17.35-.34.7-.52,1a16.59,16.59,0,0,1-4.71,5.7l1.14.5c1.69.66,4.47,1.81,6.19.63a3.44,3.44,0,0,0,1.26-2.65C469.72,224.18,468.07,222.57,466.19,221.37Z"/><path d="M466.07,209.59c-.09-10.86-9.65-16.63-19.7-16-7.57.76-12.94,8.58-13.63,15.78,3.52,2.76,7.2,5.35,10.74,8.07a91.41,91.41,0,0,0,13.63,9.15C462.75,223.41,466.13,215.93,466.07,209.59Z"/><path d="M158.49,369.7a37.66,37.66,0,0,1,.91-4.13c-3.82-.74-8.49-.4-11.27,2.69-1.94,2.17-1.55,5-.06,7.33,2.47,3.82,7,6.12,11.09,7.75l.5.19A29,29,0,0,1,158.49,369.7Z"/><path d="M186.28,77.53h0Z"/><polygon points="441.8 251.9 441.8 251.9 441.8 251.9 441.8 251.9"/><polygon points="132.84 66.47 132.83 66.48 132.84 66.47 132.84 66.47"/><path d="M496.56,124.81c-12.62-20.43-35.7-28.26-58.64-29.39-25.7-1.26-50.52,1.34-76-4-24.6-5.16-47.64-15.53-68.43-29.59-20.33-13.76-38.6-30.34-59.59-43.19-20.58-12.58-44.45-22-68.92-17.49-19.61,3.59-38.75,14.62-47.69,33-16.09,33.08-2,73.68,1.28,108.09a77.75,77.75,0,0,1,26.3-20.11,67.42,67.42,0,0,1,15.73-5c5.41-1,6-7.5,9.09-11.92,6-8.53,19.82-3.62,27.93-1.06,5.93,1.88,25.34,6.48,24.4,15.08-5.08-9.11-27.14-13.39-36.5-14.74-5.58-.8-10.89-.83-14.42,4.12a44.8,44.8,0,0,0-4.36,7.84c-2.2,5-6.5,3.91-11.5,5.4-28.56,8.52-47,34.81-55.37,62.19-2.65,8.68-3.4,13.84-8.84,20.65a196.69,196.69,0,0,0-16.23,23.81c-13.92,23.95-24,52.22-22.75,80.25,1.11,24.77,20.39,48.8,46.65,34.41,9.55-5.24,17.35-14.2,25.87-20.95,10.28-8.14,21.35-15.38,33.47-20.47,53.22-22.4,110.12,7.87,135.25,56.45a194.12,194.12,0,0,1,14.27,37.29c-8.6-28.89-23.07-56.87-47.18-75.77-32.1-25.15-75.2-30.76-111.68-12.08-14.09,7.21-26.46,17.06-38.32,27.44C98.05,345.84,83.15,356.36,66.46,348c-17.16-8.64-19.33-31.16-18.19-48.07,1.49-22.26,8.64-43.93,18.91-63.64-24.3,15.78-48.46,31.41-60,59.24-9.52,22.95-9,48.84-1.67,72.32,16,51.47,62.5,95.27,119,83.77,53.53-10.9,103.87-51,159.66-25.78,44.57,20.15,80.92,76.53,135.52,67,40.4-7.08,60.2-52.75,54.08-89.9-3.6-21.82-13.08-42.22-22.37-62.09-7.66-16-19.27-33-20-51.34-1.38-36.17,36.46-45.75,58.79-64.23C519.47,201,517.18,154,496.56,124.81ZM144.26,19.2c.09-.08,4.07-4.5,3.78-4.36.77-.38,1.26,4.55,2.09,5.33.52.39-3.65,4.26-4.1,5C145.93,24.33,144.07,19.33,144.26,19.2Zm-15.18,89c-2.61,1.53-5.1-2.72-2.49-4.26S131.69,106.66,129.08,108.2Zm2.47-41.69h0A93,93,0,0,1,150.5,53.27a52.9,52.9,0,0,1,10.77-4.1c3-.77,8.07,1.77,4.55,2.36a54,54,0,0,0-20.31,8.38,97.47,97.47,0,0,0-8.93,6.6C135.35,67.52,128.11,69.51,131.55,66.51Zm35.21-9.18s-1.42.62,0,0a65.08,65.08,0,0,0-17.46,11.81q-3.14,2.86-6.11,5.9c-1.6,1.63-4.08-.9-2.5-2.5a99.58,99.58,0,0,1,16.61-14.13A53.19,53.19,0,0,1,165,54.28C166.85,53.46,168.9,56.16,166.76,57.33Zm-.16-12.1c-1,2.16-15.62,4-18.53,5.23a99.54,99.54,0,0,0-11.79,6,1.78,1.78,0,0,1-1.81-3.07c-.28.16-.34.18,0,0l.54-.3-.52.29C138.56,51.06,169.21,39.66,166.6,45.23ZM185.89,77.6c.22-.08.35-.12,0,0-.88.31-.37.13,0,0-.83.27-7.91.92-4.77-1.83C183.27,73.89,188.14,76.78,185.89,77.6Zm.28-4.8c-1.5-1.7-1.59-3.1-.29-4.18C189.21,68.26,187.84,75.19,186.17,72.8Zm3.72,12c-2-2.1-.9-8.45.87-5.68C191.66,80.51,194,89.08,189.89,84.79ZM194,77.16c-.29,0-.19,0,0,0a2.32,2.32,0,0,1-3-.84C190.44,72.93,196.91,76.71,194,77.16Zm-4.91-28.82c4.05,5.87,1.74,10.6-5,6.32-3.63-2.31-4.24,3.1-8.36,3.37-5.17.33-2.21-7.32-1.08-9.28-3.41-1.15-8.22-5.82-2.39-7.66,3.18-1,4,.77,4.81-2.9.41-1.81,1.14-5.3,3.55-5.6,3.79-.89,4.08,7.09,8.26,7.38C196.62,40.5,193.51,45.52,189.07,48.34ZM22.58,290.56a2,2,0,0,1-3.64,1C17.16,288.51,22.73,287.45,22.58,290.56Zm-.73,32.29c-3.19,0-3.2-4.94,0-4.94S25,322.85,21.85,322.85Zm28,53.42c.55-2,3.81-1.07,3.26.89S49.28,378.3,49.85,376.27ZM34,356.55a1.4,1.4,0,0,1,0-2.8A1.4,1.4,0,0,1,34,356.55ZM53.44,416.5c-1.18-.45-4.63.75-4.92.37-1.8-2.31,1.48-2-1.09-3.95-2-1.52,1.32-2.4,2.18-2.39,1.35-6,7.68,1.18,4.69,3C54.77,414.24,56.29,417.61,53.44,416.5Zm41.38-18.12c-.76,1.4-.34.63,0,0-1.54,2.82-6.66,1.41-9,1.09-.11,1.84-.65,9.47-4.13,8.56-2.85-.75-3-6.33-4.2-8.42-.75-1.26-7.4.11-9.18-.72-5.51-2.57,4.51-7.7,6.49-8.28-3.13-4.61-3.37-11.72,3.78-7.22,4.13,2.59,3.82.63,8-2,5.25-3.23,4.75,1.86,4,5.26-.85,3.9-2,3.49.1,5.59,1.23,1.21,5.36,3.83,4.15,6.08C95.09,397.88,95.29,397.5,94.82,398.38Zm13.75,27.53c-.25-.15-.15-.09,0,0-1.85-1.15,4-2.23,3.32.19C110.91,426.88,109.8,426.82,108.57,425.91Zm4.09,5.3c-1.92,1.33,0-3.16,0-3.15C113.15,427.45,113.3,430.77,112.66,431.21Zm.38-6.41A3.55,3.55,0,0,1,114.3,421C116.4,419.63,113.43,426.7,113,424.8Zm4.23,4.06c-.16-.1-3.61-1.74-2.39-2C117,426.4,118.15,429.15,117.27,428.86Zm.6-61.73c-.45.45-4.47,4.13-4.45,4.16-1.44-2.05-.82-2.59-1.39-5.11-.55-.37,4.4-5.21,4-5.25A45.72,45.72,0,0,1,117.87,367.13ZM227.47,318c-.23-.12-.55-.29,0,0h0c2.16,1.15.62,4.12-1.27,3C224.56,320,225.57,317,227.47,318Zm-36.7-10.74c4.38,0,4.38,6.81,0,6.81S186.38,307.22,190.77,307.22Zm-30.41,30.16c.14.07-.42,6.47-2.21,5.78-1.18-.46-4.63.75-4.93.37.11.14-1.2-5-1.53-5.16.41-.36,3.1-2.89,4-3.81C156.12,335.41,160.61,337.51,160.36,337.38Zm-8.72,1c.17-.54.09-.26,0,0Zm-.88,89.83c-1.51-1-1.52-2.36-1.54-5.25-.55-.38,4.41-5.2,4-5.25a47.71,47.71,0,0,1,1.83,6.2C154.55,424.43,151,428.37,150.76,428.24Zm98.73-24.14c.23-.08.38-.13,0,0-.91.33-.37.13,0,0-.87.29-8.32,1-5-1.92C246.75,400.2,251.88,403.24,249.49,404.1Zm.31-5c.15.22.28.41,0,0q-2.35-2.69-.3-4.39C253,394.3,251.56,401.56,249.8,399.07Zm4,12.66c.35.36.89.92-.06-.06-.26-.27-.18-.19,0,0-2.15-2.26-.85-8.84.93-6C255.56,407.15,258,416.07,253.76,411.73Zm4.24-8.09h0a2.42,2.42,0,0,1-3.14-.88C254.28,399.22,261.08,403.14,258,403.64Zm-.39-24.07c-.51,5.55-4.64,9.42-9.47,11.62a33.39,33.39,0,0,1-7.57,2.35c-5.17,1-4.79,2.73-8.06,6.57a40.4,40.4,0,0,1-38.71,13.57,44,44,0,0,1-30.22-22.52c-9.26-2.86-29.11-12.83-21.08-25.74,3.33-5.34,10.79-7.08,16.63-6.59,5.34.46,7.73-9.19,11.54-13.56,9.47-10.87,21.77-14.24,35.77-12.5,13.12,1.64,24.81,11.25,30.57,22.91,3.4,6.89,4.05,4.74,10.52,8.49C252.88,367.27,258.23,372.91,257.61,379.57ZM481,140.3a1.36,1.36,0,0,1,0,2.72A1.36,1.36,0,0,1,481,140.3Zm-25.67,21.08c3.19,0,3.19,4.94,0,4.94S452.13,161.38,455.32,161.38Zm-24.64-61.23c.5-1.44,2.08-2,2.85-.37,1.39,2.83-3.68,2.89-2.85.37C430.73,100,429.82,102.75,430.68,100.15Zm1.33,33c4.35.47-.1,12.07-2.48,10.49.29.2-1.64-6-1.57-6.09S432.65,133.21,432,133.14Zm-6.89,29.54a1.24,1.24,0,0,1-.56,2.16C422,165.38,423.11,160.92,425.12,162.68Zm-6.22,51.57a1.26,1.26,0,0,1,0,2.51A1.26,1.26,0,0,1,418.9,214.25Zm-29.59-56.16c4,0,4,6.23,0,6.23S385.29,158.09,389.31,158.09Zm-4.17-49.32a1.4,1.4,0,0,1,0,2.79A1.4,1.4,0,0,1,385.14,108.77Zm-39.91-.18c5.46,0,5.46,8.49,0,8.49S339.76,108.59,345.23,108.59Zm7.18,63c2.63,1.71,27.21,8.37,28,6.51.72-1.66-10.48-5.76-11.75-6.21a88.88,88.88,0,0,1,19.17,8.58c6.3,4,5.9,8,4.17,14.9-13.58-8.31-30-11.36-45.67-12.26,1.62-4.66,3.18-9.81,5.86-14,1.75-2.73,12.07,1.38,14.36,2.1C364.54,170.59,351.31,170.89,352.41,171.6Zm-8.83-22c.49.39,4.56,2.6,2.8,4.38-3.13,3.45-5.81-6.73-2.82-4.39C343.34,149.41,343.14,149.25,343.58,149.6Zm-.17-3.7c-.28-.06-.71-.16,0,0,1.46.34,5.22-.61,5.38,1.91C349.18,153.31,338.92,144.94,343.41,145.9Zm-1.05-7.25h0c.38-.12.21-.06,0,0,2.86-.91,2.41,6.4-.65,6.08C339,144.46,340.57,139.23,342.36,138.65ZM340,150c.05-.18.13-.42,0,0-.32,1.1-.31,5-2.58,4.38C333,153.19,340.8,147.07,340,150Zm-6.31-4.6h0c.6-.76,2.38-.8,3.8-.36-1.31-.88-2.56-3-1.74-3.81,1.64-1.63,5.19,3,3.27,4.09a.94.94,0,0,1-.6.11c.73.41,1.18,1,1,1.64C338.84,148.88,332.74,146.57,333.65,145.37Zm-17.49,13c3.57,0,3.57,5.51,0,5.51S312.61,158.37,316.16,158.37Zm-25,12.31c.65,6-7.37-2.37-1.58-1.55l-.21,0c-.24,0-.41-.06,0,0l.2,0A1.84,1.84,0,0,1,291.21,170.68ZM289.43,65.26a1.26,1.26,0,0,1,0,2.51A1.26,1.26,0,0,1,289.43,65.26Zm-4.69,37.35c4.39,0,4.39,6.8,0,6.8S280.35,102.61,284.74,102.61Zm-14.64,44c.47.3-3.92,5.34-4.12,5.29-1.25-.32,0-4.07-1.7-5.32-.56-.28,3.28-4,3.49-4.92C268.15,140.07,269.65,146.28,270.1,146.61Zm-5.45-75.82a1.22,1.22,0,0,1,.13,2.28C263,74,262.42,70.17,264.65,70.79Zm-2,24.68c-.88,3.26-5.74,1.66-4.94-1.33S263.53,92.19,262.62,95.47Zm.12-32h0c.29,0-4.76-2.31-3-2.57s4.94,2.8,3,2.57C263,63.46,263.2,63.5,262.74,63.44Zm-4.42-5.74c.39-.82.25-.54.11-.24.67-1.37,2.48-4.75,4.41-3.12,2.66,2.25-5.58,5.66-4.52,3.36Zm-1,5.28c0-.17,0-.31,0,0-.13,1-.29,6.16-2.45,5.57C251.3,67.57,257.6,60.9,257.35,63Zm-3.21-9.31c-.15-.24-.25-.41,0,0,1.6,1.61,2.11,3.32,1.52,5.15C251.72,61.84,251.64,49.5,254.14,53.67Zm-5.47,4.58c.88-.12,6.66.58,6.2,2.28C254,63.6,248.11,58.33,248.67,58.25Zm-10.82,52.61a1.87,1.87,0,0,1,0,3.73A1.87,1.87,0,0,1,237.85,110.86ZM218.94,42.29c-5.81,0-5.81-9,0-9S224.74,42.29,218.94,42.29Zm.64,90.53c8.76,6.34,16.28,14.08,23.66,21.94l.06.07c11.76,12.53,23.65,23.73,41.27,26.5,19.1,3,38.74-.13,58,.34-1,3-29.36,1.74-33.94,1.87-11.82.33-24.24.47-35.51-3.62-11-4-19.47-12.14-27.41-20.47C241.67,155.23,218.53,136.1,219.58,132.82Zm-43.91-23.48c-.24.27-1.71,2,0,0,0,0,0,0,0,0,5.14-5.87,25.86,3.48,31.27,5.7,3.6,1.48,7.59,3,10.72,5.38,2.25,1.72-1.61,10.11-2.22,11.93-13.36-8.67-29.47-14.2-45.52-13.1A37.11,37.11,0,0,1,175.67,109.34Zm-63.79,82.55v0c.07-.33.14-.63.2-.91l-.2.9c6.29-28.12,25.37-54.35,54.93-60.44,28-5.76,52.75,13.16,70.44,32.57,9.37,10.28,18.15,22.16,30.4,29.2,15.32,8.82,33.16,4.61,49.52,1.74,29.44-5.16,63.91-3.89,81.48,24.24,14.59,23.37,11.73,52.29-.48,76-12.94,25.11-35.11,36.54-62.81,28.59-30.06-8.63-52.8-30-79.61-44.73s-58.71-12.2-87.61-20.19c-14.68-4.1-30.34-8.2-42.51-17.82-15.35-12.13-17.37-33.1-13.75-49.14ZM395.72,316.23h0c-5,33.48-8.29,82.51-39.67,103.52-5.14,3.43-1-6.67-1.09-6.55,2.53-4.83,5.48-9.42,8.27-14.1a195.1,195.1,0,0,0,13.42-27.63c4.11-10.27,7.53-20.81,10.72-31.39,1.62-5.37,3.17-10.75,4.72-16.14C392.21,323.52,396.14,313.3,395.72,316.23Zm-315-74.65c2.19-12.5.33-1.82,0-.06.83-4.28,15.86-40.65,21.43-36.51.17.13-10,18.23-11,20.23-2.11,4.52-4,9.13-5.94,13.73,0-.05-5.49,8.28-4.56,2.67ZM63.56,324.64c-1.28-2.11,5-1.14,4.11-1,4.09-.43,7.1-3.69,9.48-6.71C82.62,310,87.87,303,93.93,296.56A102.65,102.65,0,0,1,113.65,280c3.52-2.22,17.88-8.32,8.18-.52-12.83,10.32-21.71,24.29-32.17,36.8C84.07,322.94,71,337,63.56,324.64Zm231,27.65c-14.2-25.5-36-45.88-63.75-55.73-28.26-10.45-58.31-7.82-84.74,6.35a174.1,174.1,0,0,0-28.45,19.64c-8.92,7.4-17.45,17.71-29.29,20.08,19-33.21,50.32-59.34,89.24-63.51,43.32-4.33,93.14,16.24,120.78,50,23.17,28.34,29.16,65.15,26.22,100.73-8.48-8.49-9.36-21.32-12.31-32.37C308.1,381.83,302.5,366.49,294.59,352.29Zm74,109.21a10.46,10.46,0,0,1-.81,3.78c-1.64,3.12-3.26-.62-3.68-2-.78-2.61-13.21-3.61-2.42-7.25-1.44-2.17-2.1-6.89,2.06-4.59,3.45,1.92,4.52-2.76,7.4-1.26-1.92-.29,1.72,10.83,2.4,10.91A6.1,6.1,0,0,1,368.57,461.5Zm21.49-2.15a1.16,1.16,0,0,1,0-2.32A1.16,1.16,0,0,1,390.06,459.35Zm13-31c-2.74,0-2.74-4.25,0-4.25S405.77,428.31,403,428.31Zm.89-51.78c-7.79,25.68-27.44,71.25-60.11,71.25-15.9,0-26.57-13.09-29.93-27.44,5,14.06,19.39,23.75,34.31,20.23,16.85-4,28.92-20.07,37.29-34.08,16.34-27.37,24-60.75,23.41-92.55-.13-6.64,6.38-14.86,8.72-21.23A106.09,106.09,0,0,0,424.4,259c.52-19.26-5.48-38.64-18.91-52.76a66,66,0,0,0-9.87-8.49,40,40,0,0,0,1.69-11.8c-.2-5.1-6.75-8.69-10.59-10.79-8.33-4.55-25.16-13.14-35.11-10.65,4.64-6.35,24.11,2.9,29.29,5,14.27,5.83,22.41,11.2,18,27.46,33.14,23.39,34.82,67.81,20.61,102.51-2.39,5.84-7.13,11.62-7,18,0,4.22-.08,8.45-.33,12.67A202.13,202.13,0,0,1,403.92,376.53Zm18.93-35.59c2.26-1.64,4.9.76,4.64,3.09C426.84,349.83,417.3,344.63,422.85,340.94Zm-2-41.89c.85-1.12,2.93-1.46,3.2.42C424.58,303.27,419.11,301.28,420.83,299.05Zm-7.15,168.73c-3.51,0-3.51-5.45,0-5.45S417.19,467.78,413.68,467.78Zm14.57,1.84a.79.79,0,0,1,0-1.58A.79.79,0,0,1,428.25,469.62ZM439.62,443c-4.89,0-4.89-7.59,0-7.59S444.52,443,439.62,443Zm2.5-83c1.12.13,3,1.66,1.1,2.79C440.4,364.45,439.94,359.75,442.12,360ZM452,377.29c5.15,4.3,5.24,14.42,10.31,16,8.2,2.54,7.37,12.12-.86,13.7-12.4,2.37-28.29,13.22-38.16-2.63-3.26-5.23-11.88-3-14.73-9.19-2.19-4.76,7.38-6.2,10.08-6.37,3.19-.2,2.29-2.92,3.64-5.6a16.56,16.56,0,0,1,8.7-7.86C437.81,372.42,446.05,372.32,452,377.29ZM441.8,251.9c.08-.21.14-.35,0,0-.27.67-.12.29,0,0-.18.4-3.81.52-4.77,1.3-2.48,2-2-2.16-1.7-3-1.17-.23-3.53-1.59-1.26-2.75s.63-2.39,2.47-3.48c.9-1.18,2.2,2.31,3,2.27s2.36-.38,2.66.71A47.6,47.6,0,0,0,441.8,251.9Zm30.84-25.06c-.06.56,0,.4,0,0-.93,8.43-9.77,5.93-14.95,3.16-6.8,3.06-14.63.24-20.38-3.81a18,18,0,0,1-7.7-15.78c-2.79-2-12.76-9.76-7.86-14,5.05-4.34,10,3.65,14.14-.63,5.44-5.68,13.52-6.49,20.73-4A18.43,18.43,0,0,1,469,209.21a25.15,25.15,0,0,1-1.75,9.24c2.89,1.8,5.8,4.63,5.42,8.37C472.73,226,472.91,224.31,472.64,226.84Zm10.17-41.3c-5,0-5-7.79,0-7.79S487.83,185.54,482.81,185.54Z"/><path d="M243.65,155.2l-.35-.37-.05-.05Z"/><path d="M243.65,155.2c1.51,1.62,2.3,2.45,2.58,2.75Z"/><path d="M472.64,226.87v0Z"/><path d="M136.72,53.84h0l0,0Z"/><path d="M186.5,73.9Z"/><path d="M342.71,146.15h0Z"/><path d="M267.77,141.66c-.09.43-.14.63-.16.7C267.64,142.22,267.79,141.61,267.77,141.66Z"/><path d="M267.61,142.36s0,0,0,0Z"/><path d="M352.41,171.6Z"/><path d="M230.84,296.56c27,9.62-11.91-4.4,0,0Z"/><path d="M256.83,62.11h0C256.82,62.24,256.8,62.39,256.83,62.11Z"/><path d="M257.43,58.85h0a1.07,1.07,0,0,0,.07-.15Z"/><path d="M287.68,398.66Z"/><path d="M340.37,148.87h0C340.35,149,340.33,149,340.37,148.87Z"/><path d="M256.1,403.68Z"/><polygon points="341.98 141.31 341.98 141.31 341.98 141.31 341.98 141.31"/><path d="M339.32,145.81a3.21,3.21,0,0,0-.62-.26A1.48,1.48,0,0,0,339.32,145.81Z"/><polygon points="336.17 145.79 336.17 145.79 336.17 145.79 336.17 145.79"/><path d="M342.79,148.61h0C342.94,148.73,343.11,148.87,342.79,148.61Z"/><path d="M289.42,169.1l.21,0-.17,0Z"/><polygon points="260.16 62.39 260.17 62.39 260.16 62.39 260.16 62.39"/><path d="M254.86,56.37h0C255,56.56,255.12,56.82,254.86,56.37Z"/><polygon points="227.47 317.97 227.47 317.96 227.47 317.97 227.47 317.97"/><path d="M108.55,425.9h0C109,426.17,108.74,426,108.55,425.9Z"/><path d="M80.68,241.58a.11.11,0,0,1,0,.06.37.37,0,0,0,0-.12S80.69,241.57,80.68,241.58Z"/><path d="M94.81,398.39h0Z"/><path d="M395.72,316.24h0C395.63,316.77,393,334.65,395.72,316.24Z"/><path d="M246.23,158l.06.07Z"/><path d="M250.19,400.38h0C250.06,400.2,249.9,400,250.19,400.38Z"/><polygon points="175.68 109.33 175.67 109.34 175.68 109.33 175.68 109.33"/><path d="M253,409.46l.05,0-.06-.05Z"/><polygon points="249.97 404.01 249.97 404.01 249.96 404.01 249.97 404.01"/><path d="M246.29,158Z"/><path d="M176.44,394.8c-.74-.17-1.5-.37-2.28-.57a32,32,0,0,0,14.62,12.56c8,3.45,17.64,3.85,25.55-.17a32.44,32.44,0,0,0,11.9-10.48c-6.33.69-12.82.74-19.09.92C196.9,397.36,186.45,397.16,176.44,394.8Z"/><path d="M423.74,199.63c-.36,2.58,3.75,5.56,5.44,6.94l.21.16c.05-.26.09-.53.15-.79a18.54,18.54,0,0,1,2.18-5.49C429.79,199.41,424.07,197.25,423.74,199.63Z"/><path d="M438.34,216.7c-1.8-1.48-3.86-2.84-5.92-4.26a14.53,14.53,0,0,0,4.14,10c3.51,3.41,9.08,6.24,14.05,6.3a11.9,11.9,0,0,0,3.9-.62l-1.54-.93A123.9,123.9,0,0,1,438.34,216.7Z"/><path d="M151.39,190.81a3.15,3.15,0,0,0,2.93,1.41c2.39,0,6.46-1.57,8.86-2.61,4.71,8.35,6.62,8.35,7.46,8.35a2.54,2.54,0,0,0,.78-.12c1.1-.36,3.08-1,1.83-11.17,9.73-2,9.54-3.78,9.39-5.09-.08-.76-.32-3-8.32-5.58.51-9.74-1.63-10.46-2.52-10.77a2.64,2.64,0,0,0-.93-.16c-.72,0-2.8,0-7.83,6.89-2.08-.85-5.59-2.13-7.77-2.13a3.6,3.6,0,0,0-2.39.76c-1.34,1.14-1.92,2.73,4.2,10.28C154.08,183.5,149.63,187.94,151.39,190.81Z"/><path d="M322,236.48c-9.94,19.88-12.16,43.93,7.35,59.12,18.54,14.45,43.47,12.8,58-5.82,15-19.2,18.76-51-2.69-67.14C363.45,206.71,335,214.45,322,236.48Zm70.27,1.8c20.48,44-40.58,73.91-64.2,35a39.27,39.27,0,0,1-4.46-27.79c6.26-32.4,55.05-36.48,68.66-7.24Z"/><path d="M340.05,236.54c-9,9-5.51,27.76,2.69,35.67,11.73,11.29,29.71,10.34,39.35-2.67,8.61-11.62,11-30.07-.81-40.52-13.15-11.65-32.65-7-41.23,7.52Zm23.32-10.13c27.19,0,28.82,42,3.36,43.7C337.28,272.13,332.73,226.41,363.37,226.41Z"/><path d="M354.74,256.8c3.72,4.27,9.67,6.73,16.74,6.92h.08a2,2,0,0,0,2-2,2,2,0,0,0-1.11-1.82c-2.63-1.71-9.17-7.11-7.8-11.35,2-6.1,9.07-6.76,12-6.76.64,0,1.05,0,1.08,0a2,2,0,0,0,2-1.18,2,2,0,0,0-.43-2.31,16.87,16.87,0,0,0-11.9-4.54c-7.31,0-15.51,4.22-16.33,12A14.29,14.29,0,0,0,354.74,256.8Z"/><path d="M136.21,232.88c21.7,12.06,44.24,5.59,56.85-15.47s11.56-51.68-12.1-64.35c-48.87-26.16-92.37,53.36-44.75,79.82Zm-9.75-32.45c-3.21-9.23-2.56-19.17.69-28.3,9.69-16.24,28.29-24.49,46.5-17.86,20,7.22,27.19,28,21.71,47.57-9.31,33.29-58.55,28.25-68.9-1.41C126.38,200.18,126.56,200.69,126.46,200.43Z"/><path d="M137.6,194.72c4,14,21.06,23.14,34.8,17.67,14.14-5.64,21.74-24.86,17.3-39-11-35-61.13-10.65-52.1,21.32C139.43,201.21,135.5,187.29,137.6,194.72Zm6.06-15.18c1.43-19.53,29.17-26.49,39.9-9.77a23,23,0,0,1-6,30.83c-14.85,10.57-35.08-4.2-33.86-21.06C143.68,179.21,143.63,179.91,143.66,179.54Z"/><path d="M264.14,254.86c-6.18-2.52-11.6-4.39-16.82-6.19-3.06-1.06-5.95-2-8.95-3.16a11.31,11.31,0,0,0-3.93-.72,9.67,9.67,0,0,0-9.43,6.77,24.21,24.21,0,0,0-1.64,5.43c-.25,4,2.58,7.38,7.55,9.1,5.62,2,11.16,4,16.06,5.89,5.58,2.1,10,3.76,12.6,4.5a5.21,5.21,0,0,0,1.37.19c2.26,0,4.58-1.47,6.21-3.94a35.47,35.47,0,0,0,2.41-5.75,10.08,10.08,0,0,0,.59-2C271,260.55,268.79,256.75,264.14,254.86Zm2,9.38a6.68,6.68,0,0,1-.53,1.56c-.05.09-.09.19-.14.28a6.74,6.74,0,0,1-.38.64l0,0a5,5,0,0,1-2.21,1.91l-.06,0a1.72,1.72,0,0,1-.42.08,1.09,1.09,0,0,1-.32,0c-2.44-.69-7-2.41-12.27-4.4-4.92-1.85-10.49-4-16.16-5.92a12.05,12.05,0,0,1-1.25-.5l-.06,0a6.59,6.59,0,0,1-3.11-2.65.3.3,0,0,1,0-.08,3.7,3.7,0,0,1-.26-.7l0-.18a3.27,3.27,0,0,1-.07-.62,2.64,2.64,0,0,1,0-.28,3.7,3.7,0,0,1,.07-.57,5.57,5.57,0,0,1,5.53-3.95,7.33,7.33,0,0,1,2.52.47c3,1.12,5.94,2.13,9,3.19,5.18,1.79,10.54,3.63,16.63,6.11C266.17,260.08,266.51,262.48,266.16,264.24Z"/><path d="M234.44,225.56A24.06,24.06,0,0,0,232.8,231c-.24,4,2.59,7.38,7.56,9.1,5.62,2,11.16,4,16.06,5.88,5.58,2.11,10,3.77,12.59,4.51a5.28,5.28,0,0,0,1.38.19c2.25,0,4.58-1.48,6.21-3.94A36.28,36.28,0,0,0,279,241a10.27,10.27,0,0,0,.59-2c.88-4.47-1.36-8.27-6-10.16-6.2-2.53-11.62-4.4-16.85-6.2-3.06-1-5.94-2-8.93-3.15a11.31,11.31,0,0,0-3.93-.72A9.67,9.67,0,0,0,234.44,225.56Zm21,.93c5.18,1.79,10.55,3.64,16.64,6.12,3.56,1.45,3.9,3.85,3.55,5.61a5.79,5.79,0,0,1-.42,1.34l-.27.55c-.07.13-.14.25-.22.37l0,.05a6.34,6.34,0,0,1-1.12,1.35h0l-.26.23a3.69,3.69,0,0,1-.38.26l-.06,0a2.47,2.47,0,0,1-.9.34h0a1.24,1.24,0,0,1-.39,0c-2.44-.69-7-2.41-12.25-4.39-4.92-1.85-10.5-4-16.18-5.93a12.81,12.81,0,0,1-1.24-.5l-.08,0a6.56,6.56,0,0,1-3.1-2.65l0-.08a3.66,3.66,0,0,1-.25-.7,1.16,1.16,0,0,1,0-.18,3.18,3.18,0,0,1-.06-.62,1.22,1.22,0,0,1,0-.27,4,4,0,0,1,.08-.59,5.58,5.58,0,0,1,5.52-3.94,7.29,7.29,0,0,1,2.52.47C249.42,224.43,252.33,225.43,255.4,226.49Z"/><path d="M260.32,198.7c3.05,1.11,4.77-3.63,1.71-4.74S257.26,197.6,260.32,198.7Z"/><path d="M278.28,205c2.88,1,4.51-3.43,1.62-4.48S275.4,204,278.28,205Z"/><path d="M284.18,207.29c3.06,1.11,4.78-3.64,1.72-4.74S281.12,206.18,284.18,207.29Z"/><path d="M266.38,200.68c2.89,1,4.51-3.42,1.62-4.47S263.5,199.63,266.38,200.68Z"/><path d="M272.29,203c3,1.11,4.77-3.63,1.71-4.74S269.23,201.86,272.29,203Z"/><path d="M275.07,211.78c-2.88-1.05-4.5,3.43-1.62,4.47S278,212.83,275.07,211.78Z"/><path d="M263.17,207.47c-2.87-1.05-4.5,3.42-1.61,4.47S266.06,208.51,263.17,207.47Z"/><path d="M269.17,209.49c-3.06-1.11-4.77,3.63-1.71,4.74S272.24,210.6,269.17,209.49Z"/><path d="M261.22,205.57c3.06,1.11,4.77-3.63,1.72-4.74S258.16,204.46,261.22,205.57Z"/><path d="M279.18,211.86c2.89,1,4.51-3.43,1.63-4.47S276.3,210.82,279.18,211.86Z"/><path d="M267.29,207.55c2.88,1,4.51-3.43,1.62-4.47S264.4,206.51,267.29,207.55Z"/><path d="M273.18,209.84c3.07,1.11,4.79-3.63,1.73-4.74S270.12,208.73,273.18,209.84Z"/><path d="M238.75,228.5c-.14,1.14,1.5,1.39,2,.55,3.27-5.27,11.8,1,16.29,1.52.41.05.53-.57.21-.76C253.26,227.56,239.87,218.9,238.75,228.5Z"/><path d="M236.15,250.22c-3.44-.9-6.92,1.95-6,4.6.21.54,1,.43,1.26,0,.87-1.28.89-2.18,2.69-2.33a14.56,14.56,0,0,1,5.26.9,79.88,79.88,0,0,0,8,2c.3.05.55-.39.22-.54C243.69,253.05,240.39,251.32,236.15,250.22Z"/><path d="M331.81,255.11c-.93-7.64-.31-18.46,4.63-24.68.46-.57-.16-1.64-.87-1.12-8.73,6.47-12.62,14.94-11.82,25.8.74,10.17,6.79,20.09,16.48,23.85,1.08.42,1.92-1.17,1.12-1.92C335.08,271.33,332.8,263.28,331.81,255.11Z"/><path d="M139.06,213c.92.46,2.33-.57,1.57-1.57-5.43-7.1-8.44-14.39-8.54-23.42a46.55,46.55,0,0,1,7.26-24.7c.4-.61-.45-1.17-.95-.73A35.36,35.36,0,0,0,125.65,188C125.1,197.88,130,208.4,139.06,213Z"/><path d="M148.49,183.08c2-3.88,0-8.63,1.85-12.69.34-.78-.56-1.62-1.24-.95-3,3-5.45,9-3.88,13.21C145.72,184,147.71,184.57,148.49,183.08Z"/><path d="M345,250.79a1.63,1.63,0,0,0,2.64-.35c1.13-2.49.36-4.67.53-7.36.3-5.16,3.43-7.21,3.85-8.46a.72.72,0,0,0-.5-.88c-3-.56-6.4,3.28-7.4,5.81C342.77,243.1,343.59,248.61,345,250.79Z"/><path d="M176.57,112.8c5.64,1.57,11.71,1.71,17.47,2.78a173.31,173.31,0,0,1,17.41,4.27c.85.25,1.42-1,.6-1.44-10.36-5.11-23.6-11.7-35.48-8.72A1.62,1.62,0,0,0,176.57,112.8Z"/><path d="M181.67,135.25c12.37,3.43,21.66,11.38,31.24,19.52,10.76,9.14,22.16,17.06,33.49,25.47.88.65,1.7-.68,1.09-1.4-16.85-19.93-37.89-43-65.61-45.07C181,133.71,180.88,135,181.67,135.25Z"/><path d="M306.2,200.84c15.11,3.1,30.5,1.71,45.7-.19,1.74-.22,2.47-2.86.45-3.31-15.36-3.38-31-1.37-46.15,1.91A.83.83,0,0,0,306.2,200.84Z"/><path d="M358.2,199.87a1.82,1.82,0,0,0,2.05.83,1.87,1.87,0,0,0,1.39-1.74,1.89,1.89,0,0,0-1.39-1.74,1.84,1.84,0,0,0-2.05.83v0a1.73,1.73,0,0,0,0,1.76Z"/></g></g></svg>