<svg xmlns="http://www.w3.org/2000/svg" viewBox="0 0 164.09 211.91"><defs><style>.cls-1{fill:#e1ecc8;opacity:0.5;}</style></defs><g id="Layer_2" data-name="Layer 2"><g id="BACKGROUND"><path class="cls-1" d="M154.53,68.69c-5.44,24.35-16.11,49.15-35.25,65.88-10.14,8.86-23.54,17.29-37.6,14.73-13.13-2.4-22.4-14.48-24.48-27.16-1.22-7.42-.41-14.66,1.36-21.92.95-3.88,2.18-7.81,2.2-11.85,0-3.5-1-6.81-2.07-10.12-2.25-7.12-3.77-13.86-2.6-21.35a52.62,52.62,0,0,1,7.68-19.4C75.7,18.31,96.54,3.11,119.32,1.41A5.42,5.42,0,0,1,121.93.33C136.7-1.92,149.8,7.42,155.21,21,161.19,36,157.93,53.46,154.53,68.69Z"/></g><g id="OBJECTS"><path d="M76.9,24.66c.84-1.05,1.9-2.29,2-3.7a4.79,4.79,0,0,0-1.16-2.9c-.81-1.18-1.43-2.46-2.21-3.65a2.62,2.62,0,0,0-2.8-1.47l.57.23C72.12,10.48,75.22,7.47,73,5a.5.5,0,0,0-.78.11c-2.54,3.54-2.93,8.06-5,11.85-.7,1.29-1.45,2.82-1.06,4.33.33,1.29,1.38,2.32,2.06,3.44a34.48,34.48,0,0,1,2.58,6.54c.78,2.25,1.53,4.51,2.21,6.79a82.57,82.57,0,0,1,3,14.08,53.93,53.93,0,0,1,.28,11.43c-.19,1.92-.47,3.83-.71,5.74a80.78,80.78,0,0,0-.91,15.45c.22,3.4.86,8.42,4.57,9.83,4.53,1.72,8.34-2.35,9.46-6.35.56-2,.78-4.5-.42-6.31a4.21,4.21,0,0,0-5.68-.94,2.91,2.91,0,0,0-1.37,2.57,1.74,1.74,0,0,0,1.78,1.65c2.86,0,3.55-3.48,3.73-5.68a37.16,37.16,0,0,0,0-4.6c-.08-1.9,0-3.79-.07-5.69-.06-5.24-.23-10.48-.61-15.71-.2-2.67-.44-5.33-.76-8a15,15,0,0,0-1.35-5,28.42,28.42,0,0,0-3-4.26,33,33,0,0,1-2.85-4.92,10.17,10.17,0,0,0-2.81-3.79.51.51,0,0,0-.61.08c-2.61,2.42.67,7.09,2.07,9.26,1,1.5,2.08,2.93,2.94,4.5a15.17,15.17,0,0,1,1.38,8.83c-.26,2.62-.93,5.16-1,7.8a51.7,51.7,0,0,1-.43,7.15c-.37,2.14-1.23,4.51-3.53,5.2-2.07.62-3.45-1.43-4.22-3a29.78,29.78,0,0,1-1.71-6.09c-.57-2.33-2.3-4.11-3-6.37a4.89,4.89,0,0,1,.94-4.62,2.79,2.79,0,0,1,2.39-1.32c1.56.19,2.68,2,2.91,3.46A2,2,0,0,1,73,54.17c-.23.2-.79.54-1.07.32s-.18-.83-.16-1.11c.2-2.52,2.22-3.75,4.56-4.09,4.41-.63,9.8,0,13.6,2.45a7.77,7.77,0,0,1,2.46,2.38,6.48,6.48,0,0,1,.77,4.17A21.09,21.09,0,0,0,93,62.71a17.56,17.56,0,0,0,1.14,3.74,6.7,6.7,0,0,1,.6,2.74,10.49,10.49,0,0,1-.51,2.35c-.48,1.49-1.31,3.62-2.86,4.31a2.09,2.09,0,0,1-2.27-.57.5.5,0,0,0-.78.1c-2.35,3.2,3.21,7.22,5.24,8.88A34.5,34.5,0,0,1,98,88c2.27,2.57,1.55,5.44,1.11,8.49a11.57,11.57,0,0,0,.08,4.23c.3,1.34,1.21,2.77,1.14,4.17-.13,3-4.81,2.23-6.72,2.16-2.87-.12-5.75.42-8.61.1a7.14,7.14,0,0,1-6.26-4.76A13.59,13.59,0,0,1,78,99.31c0-.43-.24-1.56.1-1.92-.16.16,0,.12.21.4a7.72,7.72,0,0,1,.88,1.56A19.26,19.26,0,0,1,80.58,104c.32,1.67.52,3.37.68,5.07a24.25,24.25,0,0,1,.14,4.74,10.44,10.44,0,0,1-1.46,4.51,33.44,33.44,0,0,1-2.48,3c-1,1.14-2.61,2.74-1.76,4.36s2.61,2.53,4,3.36c3.57,2.1,7.53,3.41,11.12,5.44,2.21,1.25,5.09,3.29,7.54,1.41,2-1.51,1.72-4.28,1.47-6.46a19.72,19.72,0,0,1-.21-3.68c.13-1.54.44-3.07.71-4.59.52-2.86,1.07-5.92.32-8.79a8.53,8.53,0,0,0-1.84-3.46.5.5,0,0,0-.71,0c-1.24,1.56-1.46,3.76-1.69,5.67a72.78,72.78,0,0,1-1,7.36c-1.37,6.1-4.68,11.39-7.92,16.66a80.76,80.76,0,0,1-10.62,14c-4.65,4.78-10.12,8.87-15.41,12.9A146.75,146.75,0,0,1,47.66,175a35.31,35.31,0,0,1-5.46,2.83c-1.27.49-3.12.84-3.47-1a3.56,3.56,0,0,1,1.78-3.4c1.54-.84,2.17,1.26,1.88,2.46-.43,1.8-2.44,3-3.94,3.8A47.44,47.44,0,0,1,33.08,182a60.07,60.07,0,0,0-14.56,8.46,39,39,0,0,0-6.5,5.87c-.69.87-1.27,1.83-1.91,2.73S8.82,201,7.65,201c-1.38.08-1.93-1-1.79-2.24l-.5.5c.92,0,1.7.92,2.25,1.55A20.36,20.36,0,0,1,10,204.46a31.25,31.25,0,0,1,1.82,3.94,10,10,0,0,1,.78,3l.5-.5c-2.33.07-4.66,0-7-.09-1.36-.06-3.87.12-4.37-1.55-.38-1.29.11-2.88.21-4.18.16-2-.43-3.88-.76-5.84a6.91,6.91,0,0,1,0-3.23c.4-1.26,1.34-1.62,2.43-2.15,2-1,2.9-2.88,3.94-4.7a43.86,43.86,0,0,1,9.15-10.76,49.47,49.47,0,0,1,12.18-7.93,79,79,0,0,0,12-6.38,60.26,60.26,0,0,0,10.44-9c3.7-4,7.35-8,10.89-12.08a14.14,14.14,0,0,0,3.31-5.39c.49-1.8.69-3.54,1.73-5.15a28,28,0,0,1,4.35-5,8,8,0,0,1,5-2.5c2.45-.13,4.56,1.27,6.51,2.57,2.22,1.48,4.4,3,6.67,4.45a44.22,44.22,0,0,0,13.88,5.29c4,.91,7.92,1.95,11.89,2.88A89.82,89.82,0,0,1,125.89,143a23.74,23.74,0,0,1,8.83,5.21c2.92,3,3.7,6.78,4.44,10.75,1,5.41,1.54,10.9,2.13,16.37.27,2.48.63,5,.82,7.45.18,2.28.27,4.56.54,6.82.47,4.06,1.48,8.58,4.83,11.28,3.07,2.48,7.17,2.76,10.91,3.4a7.75,7.75,0,0,1,2.7.81,7.25,7.25,0,0,1,2.06,2.07l.3-.74c-3.89,1.56-8,1.37-12.07,1.28-3.45-.08-6.9.22-10.35.05-1.87-.09-5.79-.06-6.38-2.46-.4-1.63.47-3.53.79-5.11a7.54,7.54,0,0,0-1-6.32l-.07.6c.92-1.13,2.39-.89,3.69-1.14a2.91,2.91,0,0,0,2.41-2.34.51.51,0,0,0-.35-.61,6.15,6.15,0,0,0-4.21-.09,2.37,2.37,0,0,1-1.39.13c-.92-.34-1.4-1.76-1.74-2.56-1.91-4.57-3.08-9.46-4.54-14.18a38,38,0,0,1-1.21-6.6,50.3,50.3,0,0,1-.44-9c.06-1.15.14-4.88,1.88-5,.83-.06,1.91,1.55,2.43,2.13s.89.83.79,1.56c-.12.9-1.13.8-1.85.88-.93.11-1.83.34-2.76.48a35.28,35.28,0,0,1-4.48.35,64.52,64.52,0,0,1-7.61-.36c-3-.3-6.09-.57-9.16-.78a67.55,67.55,0,0,1-11.59-1.55c-3-.74-6.72-1.93-8.27-4.9-.3-.57-1.16-.06-.86.51,1.45,2.79,4.66,4.15,7.53,5a56.48,56.48,0,0,0,11.49,1.81c3.28.26,6.55.45,9.82.81a67.57,67.57,0,0,0,8.65.46c2.68-.06,5.24-.59,7.89-.89,1.46-.16,2.69-1.07,2.14-2.77a4,4,0,0,0-.89-1.17c-.55-.62-1.11-1.23-1.71-1.79a1.92,1.92,0,0,0-2.33-.59,3.45,3.45,0,0,0-1.56,2.19c-.88,2.78-.67,6-.48,8.84a63.94,63.94,0,0,0,1.24,9.14c.39,1.84,1.06,3.6,1.59,5.39.93,3.13,1.77,6.29,2.94,9.34.58,1.51,1.35,4.19,3.35,4.32a7.15,7.15,0,0,0,2-.39,4.68,4.68,0,0,1,3,.25l-.35-.61c-.4,1.57-1.6,1.63-3,1.77a4,4,0,0,0-2.87,1.27.5.5,0,0,0-.08.6c1.43,1.9,1.3,4.06.78,6.26-.38,1.62-1.12,3.52-.56,5.19.69,2.07,3.25,2.56,5.14,2.78,3.62.43,7.25.1,10.88.09,4.72,0,9.43.51,13.94-1.29.26-.11.51-.45.29-.74a7.29,7.29,0,0,0-4-3.07c-2.08-.56-4.28-.67-6.39-1.13A12.67,12.67,0,0,1,148,200a11.85,11.85,0,0,1-3.51-6.05c-1.26-4.54-1.07-9.33-1.64-14-.68-5.61-1.15-11.25-2-16.84-.39-2.7-.87-5.39-1.49-8a16.56,16.56,0,0,0-2-5.17,18.32,18.32,0,0,0-7.42-6.25c-6.51-3.26-14-4.41-21-6.2-5.18-1.33-10.56-2.09-15.39-4.51a63.69,63.69,0,0,1-7.13-4.38,34.12,34.12,0,0,0-6.59-4c-3.81-1.48-7.08.23-9.74,3a25,25,0,0,0-4.1,5.08c-.85,1.57-1,3.28-1.5,5-.77,2.58-2.82,4.53-4.55,6.5-1.87,2.15-3.77,4.26-5.7,6.37A87.44,87.44,0,0,1,43,161.35a64.22,64.22,0,0,1-11.88,7c-2.23,1-4.48,2-6.61,3.19a52.17,52.17,0,0,0-6,4A50.41,50.41,0,0,0,8.35,186.12c-.64.91-1.25,1.84-1.8,2.81a13.31,13.31,0,0,1-2.12,3.17,15.54,15.54,0,0,1-2.76,1.61,3.61,3.61,0,0,0-1.43,2c-.61,2,.08,4.2.48,6.19a17.58,17.58,0,0,1,0,5.37,4,4,0,0,0,.7,3.34c1.16,1.18,3.18,1.11,4.7,1.17,2.33.11,4.66.16,7,.09a.51.51,0,0,0,.5-.5,10.85,10.85,0,0,0-.89-3.44,32.84,32.84,0,0,0-2.08-4.41c-1-1.77-2.84-5.24-5.27-5.23a.52.52,0,0,0-.5.5,2.75,2.75,0,0,0,3.74,3.06,5.07,5.07,0,0,0,2.14-1.94c.74-1,1.36-2.13,2.18-3.08a46.32,46.32,0,0,1,8-6.93,65.56,65.56,0,0,1,9.11-5.46c3.85-1.89,8.6-2.88,11.77-5.94a4.27,4.27,0,0,0,1.3-4.8,2.07,2.07,0,0,0-3-1.21c-2.43,1.25-3.77,6.05-.15,6.76,1.66.33,3.77-1,5.17-1.71,1.73-.89,3.4-1.91,5-2.94a182.28,182.28,0,0,0,18-13.09c2.83-2.28,5.69-4.54,8.29-7.08a66.26,66.26,0,0,0,6.31-7.19,126.08,126.08,0,0,0,10.66-17,34,34,0,0,0,3.23-9.62c.51-2.54.53-5.14,1-7.68a7.38,7.38,0,0,1,1.16-3.33h-.71c4.36,5.05.08,12.11.51,17.87.18,2.26,1.3,5.95-.86,7.61-2.35,1.8-5.47-1.08-7.61-2.09-4-1.88-8.27-3.45-11.85-6.07a5.29,5.29,0,0,1-1.76-1.76c-.35-.77.31-1.53.76-2.12,1.57-2.07,3.48-3.69,4.38-6.19,1.12-3.14.74-6.42.37-9.65a25.33,25.33,0,0,0-2.25-8.87c-.41-.77-1.9-3-2.67-1.27-.62,1.42,0,3.58.39,5a7.91,7.91,0,0,0,4.23,5.25c2.8,1.3,6,.91,9,.76,2.54-.13,5.16.32,7.67-.12a3.52,3.52,0,0,0,2.54-1.72,4.07,4.07,0,0,0-.07-3.38,13.22,13.22,0,0,1-1-4.68c0-1.42.39-2.81.58-4.21a8,8,0,0,0-2.18-7c-1.5-1.48-3.26-2.69-4.87-4S89.84,80,89,78a2,2,0,0,1,.15-2.13l-.78.11c3.8,3.31,6.56-2.53,7.17-5.64a5.94,5.94,0,0,0,.07-2.41c-.3-1.49-1-2.83-1.44-4.29-.87-3.26,1-6.76-.81-9.83-2.56-4.46-9-5.62-13.7-5.67-2.64,0-5.93,0-7.78,2.21-.88,1-1.87,3.75-.64,4.88,1.41,1.28,3.16-.86,3.24-2.18a5.51,5.51,0,0,0-2.29-4.57c-1.76-1.22-3.66-.45-4.86,1.13A5.93,5.93,0,0,0,66,53.91a12.25,12.25,0,0,0,1.91,4.53,11.27,11.27,0,0,1,1.41,3.22c.28,1.22.45,2.45.81,3.65.61,2,1.58,4.46,3.48,5.61s4.29.07,5.55-1.59c1.51-2,1.71-4.82,1.83-7.23a67.24,67.24,0,0,1,.62-8.27c.64-3.62,1.08-7.3-.08-10.86-1.45-4.44-5.63-7.64-6.6-12.28a2.42,2.42,0,0,1,.54-2.42l-.61.08c1.37,1,2.12,2.73,2.85,4.21a26.15,26.15,0,0,0,2.55,4.25,33.37,33.37,0,0,1,2.64,3.72,13.65,13.65,0,0,1,1.46,5.17c1.09,9.24,1.18,18.49,1.37,27.78,0,2.56.37,5.17-.18,7.7-.26,1.2-.77,2.55-2.09,2.91s-1.44-.93-.84-1.76a3.11,3.11,0,0,1,5.16.62c.82,1.87.36,4.24-.35,6.06s-2.18,4-4.29,4.58A5,5,0,0,1,78.54,93a7.6,7.6,0,0,1-2.24-4.18,27.31,27.31,0,0,1-.67-6.37,101,101,0,0,1,1.05-13.68c.22-1.72.47-3.44.64-5.17a51.47,51.47,0,0,0-.1-9.85c-.77-8.38-3.23-16.45-6-24.35A27.1,27.1,0,0,0,68.94,24c-.61-1-1.61-1.92-1.85-3.07-.35-1.69,1-3.34,1.66-4.79a48,48,0,0,0,1.82-5.21A18.84,18.84,0,0,1,73,5.56l-.78.1c1.08,1.21.4,2.94.09,4.32a5.69,5.69,0,0,0,.08,3.69.5.5,0,0,0,.57.23c1.14-.25,1.78,1.16,2.23,2a28.33,28.33,0,0,0,1.65,2.68,4.31,4.31,0,0,1,1,2.14c0,1.2-1,2.39-1.71,3.25-.4.5.3,1.21.71.71Z"/></g></g></svg>