<svg xmlns="http://www.w3.org/2000/svg" viewBox="0 0 223.13 186.1"><defs><style>.cls-1{fill:#e1ecc8;opacity:0.5;}</style></defs><g id="Layer_2" data-name="Layer 2"><g id="BACKGROUND"><path class="cls-1" d="M145.93,102.1c-11.13,25.77-51,43.4-73.3,21-5-5.09-8.92-11.22-14.28-16-4.83-4.33-10.53-7.56-15.9-11.12C30.66,88.12,21.34,78.74,20,64,17.71,39.37,35.51,10.54,59.84,3.19A43.86,43.86,0,0,1,79.18.1c17.41,1.21,32.79,11.34,45,23.18C145.08,43.49,158.14,73.83,145.93,102.1Z" transform="translate(-0.01)"/></g><g id="OBJECTS"><path d="M87.45,62.41c-1,2.3-1.76,4.71-2.78,7a14.21,14.21,0,0,1-4.82,6.19c-2.26,1.62-4.67,3-6.55,5-2.34,2.59-4.38,5.51-6.53,8.26-8.76,11.24-17.5,22.5-26.61,33.47-4.21,5.07-8.4,10.15-12.29,15.46s-7.58,10.69-10.15,16.62a18.74,18.74,0,0,0-1.91,8.6c.19,2.57,2,4.38,3.76,6A17,17,0,0,0,23,171.91a13.63,13.63,0,0,0,3.65,1.1,10.31,10.31,0,0,1,4,1.44c.52.35,1.43.9.6,1.36-1.37.74-3.27.7-4.78.9-2.84.38-5.63,1.35-8.52.87-3.29-.55-6.4-2.44-9.36-3.88-2.22-1.09-5-1.73-6.42-3.95C0,166.28.9,160.86,4.75,159c1.43-.69,2.94-.55,3.64,1a5.38,5.38,0,0,1,0,4c-.39.95-1.84,2.39-2.82,1.2s-.2-3.47.2-4.67,1.19-3.35,2.47-4.07a3.7,3.7,0,0,1,1.81-.2,17.64,17.64,0,0,0,2.52-.06c1.28-.15,2.48-.76,2.33-2.23-.17-1.62-1.4-2.37-2.88-2.57-1.82-.23-3.62-.16-3.9-2.45s.74-4.63,1.59-6.65c1-2.31,2.13-4.53,3.26-6.76s2.08-4.42,3.16-6.61c2.54-5.15,5.37-10.32,9.25-14.58a46.76,46.76,0,0,1,6-5.09,26.37,26.37,0,0,0,5.16-5.39,49.07,49.07,0,0,0,6.55-13.69c1.64-4.94,2.93-10,4.64-14.91a96.32,96.32,0,0,1,4.57-11A57.71,57.71,0,0,1,59.58,52.8c2.64-3.14,5.91-6.06,9.91-7.28s8.54-.18,12.32,1.72A32.42,32.42,0,0,1,92,55.74c6,7.27,9.93,16,14,24.45a124.83,124.83,0,0,0,19.23,29.45,13.23,13.23,0,0,1,3.7,7.23,16,16,0,0,1-.82,7.42,9.43,9.43,0,0,1-5,5.68,8.06,8.06,0,0,1-7.27-.54c-3.85-2.22-7-7.92-5.14-12.36,1.5-3.49,6.11-3.47,9.25-2.76a18.35,18.35,0,0,1,11.28,8.25c1.49,2.28,2.73,4.72,4.19,7a88.69,88.69,0,0,0,5.73,7.76,145.85,145.85,0,0,0,13.43,14.25,122.28,122.28,0,0,0,13.37,11.54,50.82,50.82,0,0,0,7.64,4.55,53.44,53.44,0,0,0,8.45,2.93c6.65,1.86,13.19,4.1,19.88,5.78,3.12.78,6.29,1.29,9.41,2a90.71,90.71,0,0,1,9.27,2.8l-.22-.84c-1.55,1.67-4.32,2.45-6.42,3.09a33.15,33.15,0,0,1-9.68,1.6c-2.52,0-5.81-.36-7.36-2.65-.66-1-1.42-3.31-.55-4.33.64-.74,1.95-.05,2.45.54.78.93,0,1.71-1,1.77a11.52,11.52,0,0,1-4.31-.94c-3-1.06-5.75-2.66-8.67-3.89a123.43,123.43,0,0,0-16.59-5.37c-2.47-.65-5-1.14-7.45-1.85A19.24,19.24,0,0,1,156,165.4a10.27,10.27,0,0,1-3.05-3.81c-.25-.61-.46-1.35.23-1.73a1.43,1.43,0,0,1,1.86.48,1.56,1.56,0,0,1-1.24,2.63c-1.78,0-3.21-1.59-4.27-2.83-1.37-1.58-2.52-3.33-3.73-5a32.82,32.82,0,0,0-3.84-4.4c-4.34-4.3-8.71-8.57-12.85-13.06-1.45-1.57-3-3.06-4.39-4.66s-3.16-3.63-2.59-5.84c.26-1,.76-.93,1.47-.38a12.18,12.18,0,0,1,1.8,1.86c1.06,1.23,2.21,2.9,3.9,3.28,2,.44,4.11-.85,5.88-1.5a15.79,15.79,0,0,1,8-1,11.74,11.74,0,0,1,9.09,6.13c1.78,3.53,2.34,8.46.82,12.16s-5.13,6.44-8.93,7.7-8.36,1.4-11.77-1.05c-1.61-1.15-3-2.63-4.87-3.4s-3.14-.42-4.91,0c-.86.21-2.33.72-2.27-.69a5.23,5.23,0,0,1,1.46-2.78.51.51,0,0,0-.22-.84c-2.56-1-2.33-4.4-3.12-6.55-.3-.85-.41-.87.31-1.55,1-1,2.46-1.14,3.65-1.92a.52.52,0,0,0,.18-.68c-1.74-4-7.36-4.63-11.15-5-2.29-.23-4.59-.36-6.87-.64-2.65-.33-6.62-1-7.5-4-.3-1-.42-2.08-.81-3.07a8.11,8.11,0,0,0-1.92-2.78,16.76,16.76,0,0,1-2.63-2.83,4.25,4.25,0,0,1-.1-3.91c1-2.52,2.86-4.65,4.55-6.72,1.14-1.4,2.33-2.77,3.57-4.09a44.05,44.05,0,0,1,5.9-5.44c1.53-1.13,3.78-2.73,5.8-2.14l-.35-.62c-.3,1.74-2.16,2.94-3.5,3.88a34.81,34.81,0,0,0-3.92,3c-1.84,1.73-3.62,3.52-5.29,5.43-1.2,1.37-2.25,2.88-3.58,4.14-1.84,1.74-5,3.74-6.89,1-1.29-1.91-1.49-4.4-1.51-6.63A37.07,37.07,0,0,0,86,98.72C85,94,83.82,89.37,81.4,85.18A12.54,12.54,0,0,1,80,82.56a4.24,4.24,0,0,1,.69-3.39c1.08-1.76,2.92-2.89,4.33-4.34a27.63,27.63,0,0,0,5.13-7.61c1-2.29,1.89-5.23,0-7.3-3.25-3.47-6.53,3.47-7.53,5.69-2.16,4.77-3.36,9.86-5.27,14.73C73.85,89.2,68.87,97.4,63.93,105.5s-11.78,14.87-18,22c-2.6,3-5.16,6.07-7.56,9.22-2.29,3-4.57,6.38-5.27,10.16-.65,3.51.61,6.92,2.45,9.9a13.79,13.79,0,0,0,7.37,6.12,13.07,13.07,0,0,0,5.13.47l-.5-.5c.15,3.64-4.41,3.38-6.91,2.92a13.42,13.42,0,0,1-4.74-1.74c-2-1.24-3.71-2.55-6.12-2.76-2.14-.19-4.27-.35-5.57-2.3a5.86,5.86,0,0,1-.87-3.9A4.69,4.69,0,0,1,24.74,152c1-.79,2.13-.14,2.7.83.3.52.75,2.34-.06,2.73s-1.29-1.83-1.27-2.38a17,17,0,0,1,1.6-5.7c.25-.59-.72-.85-1-.26-.84,2-1.79,4.34-1.64,6.54.08,1.27,1.55,4,3,2.45,2.35-2.37-1.33-7.34-4.1-4.92-2.45,2.14-2.18,6.68-.11,8.94a5.91,5.91,0,0,0,2.38,1.56c1.67.61,3.51.25,5.17.84a27.69,27.69,0,0,1,4.37,2.55,11.91,11.91,0,0,0,3,1.22c3.27.9,9.94,1.56,9.73-3.53a.5.5,0,0,0-.5-.5,11.52,11.52,0,0,1-9.75-3.61c-2.39-2.53-4.49-6.46-4.4-10,.09-3.87,2.34-7.45,4.55-10.49,2.35-3.22,5-6.31,7.57-9.33,5.89-6.88,12.39-13.27,17.42-20.85,2.6-3.91,5-8,7.28-12.09A129.25,129.25,0,0,0,77,83.72c2.27-5.2,3.62-10.69,5.75-15.93.71-1.74,4.39-10.81,7.06-6.68,1.71,2.64-.88,6.67-2.3,8.87A34.8,34.8,0,0,1,85,73.4c-1.22,1.46-2.82,2.52-4.1,3.91a6.52,6.52,0,0,0-2,4.61c.12,1.77,1.41,3.3,2.21,4.81a34,34,0,0,1,2.68,7.06,43.84,43.84,0,0,1,1.54,7.4c.34,3.9-.6,8.53,2,11.86,1.56,2,4,1.8,6,.6,3.06-1.84,5-5.09,7.41-7.64a54.49,54.49,0,0,1,4.87-4.74c1.28-1,2.74-1.88,4-2.93A6,6,0,0,0,112.09,95a.53.53,0,0,0-.35-.62c-1.73-.5-3.54.32-5,1.19a31.78,31.78,0,0,0-5.61,4.54,66.6,66.6,0,0,0-8.8,10.31c-1.33,2-2.79,4.6-1.8,7,1.06,2.6,4,3.76,4.94,6.46.73,2.08.66,4,2.66,5.38,2.59,1.77,6,2,9,2.27a79.47,79.47,0,0,1,8.14.91c2.5.52,5.42,1.43,6.51,4l.18-.68a14.83,14.83,0,0,1-2.42,1,5.44,5.44,0,0,0-1.78,1.38,1.52,1.52,0,0,0-.28,2c.57,1.43.59,3,1.18,4.44a5,5,0,0,0,2.7,3l-.22-.84c-1,1.14-2.75,3.74-1.14,5.1,1.36,1.15,3.79-.47,5.3-.45,2.52,0,4.42,2.12,6.3,3.53a11.33,11.33,0,0,0,6.49,2.29,17.8,17.8,0,0,0,12.46-4.34,13.17,13.17,0,0,0,3.67-5.26,14.93,14.93,0,0,0,.55-7.15c-.54-4.2-2.42-8.2-6.21-10.37a15.58,15.58,0,0,0-6.61-1.87c-3.22-.23-6.11.87-9.06,2-1,.4-2.33,1-3.47.67a6.39,6.39,0,0,1-2.67-2.28c-1-1.12-2.27-3.16-3.9-3.31-1.82-.16-2,2.64-1.65,3.84.59,2.28,2.47,4.2,4.06,5.85,4.54,4.71,9,9.46,13.66,14.07a50.57,50.57,0,0,1,5.84,6.23c1.36,1.91,2.65,3.88,4.19,5.65,1.19,1.37,2.72,2.9,4.65,3a2.5,2.5,0,0,0,2.88-2.29,2.87,2.87,0,0,0-2.11-2.93,2.07,2.07,0,0,0-2.6,2.21c.22,1.75,1.71,3.4,2.91,4.57a15.82,15.82,0,0,0,6.09,3.28c2.93,1,6,1.55,9,2.32,3.27.84,6.51,1.87,9.73,2.88a67.5,67.5,0,0,1,10.23,4c1.15.58,2.31,1.14,3.51,1.63a22.53,22.53,0,0,0,5.13,1.63c1.12.18,2.7.3,3.41-.8,1.36-2.08-1.89-4.61-3.77-3.43-1.39.88-1,3.12-.65,4.42a5.57,5.57,0,0,0,2.52,3.18c2.93,1.77,6.86,1.57,10.11,1.14a34.85,34.85,0,0,0,10.35-2.94,8.81,8.81,0,0,0,2.72-1.77.51.51,0,0,0-.22-.84,90.09,90.09,0,0,0-10-3c-3.55-.8-7.11-1.43-10.63-2.37-7-1.87-14-4.06-20.93-6.1-6.2-1.83-11.7-5.44-16.66-9.49s-9.42-8.43-13.92-12.84a103.35,103.35,0,0,1-14.05-16.84c-3.17-4.82-5.37-10.28-10.3-13.66a16.69,16.69,0,0,0-11.14-3,6.47,6.47,0,0,0-6,6.91,12.33,12.33,0,0,0,8,11.2c4.92,1.66,9.74-1.35,11.64-5.91s1.72-10.41-1.4-14.52c-2-2.58-4.29-4.88-6.27-7.46-2.2-2.87-4.28-5.84-6.22-8.88-5.75-9-9.69-18.9-14.84-28.22C95.53,58,89.71,49.48,80.86,45.71c-3.94-1.69-8.28-2.4-12.39-.9s-7.41,4.56-10.1,7.89c-5.57,6.9-9.32,15.38-12.09,23.76C42.89,86.73,40.93,98.65,33,106.59c-2,2-4.41,3.36-6.45,5.25A38.68,38.68,0,0,0,21,118.47c-3.31,4.85-5.76,10.18-8.28,15.47-2.06,4.31-5,8.79-5.53,13.65-.17,1.69.19,3.65,1.93,4.36,1.31.54,3.65,0,4.53,1.25,1.49,2.17-1.83,2.12-3.06,2.1-1.44,0-2.63-.08-3.64,1.08a11.7,11.7,0,0,0-2.33,4.74c-.36,1.37-.71,3.21.07,4.5a2.35,2.35,0,0,0,3.25.61,4.5,4.5,0,0,0,1.82-3.39c.34-2.74-1.19-6-4.44-5.13-4.08,1.15-5.84,5.84-5.1,9.7a7.59,7.59,0,0,0,2.9,4.78A23.92,23.92,0,0,0,6.8,174c1.62.76,3.21,1.58,4.82,2.34,3,1.41,6,2.68,9.32,2.36,2.45-.24,4.87-.85,7.31-1.17,1.21-.16,3.42-.24,4.18-1.4,1-1.51-1.8-2.89-2.78-3.3a24.66,24.66,0,0,0-4-1,9,9,0,0,1-4.38-2.46,29.67,29.67,0,0,1-3.22-3.22,6.38,6.38,0,0,1-1.27-4.47c.19-3.46,1.7-6.79,3.3-9.8a99.38,99.38,0,0,1,5.44-9c8.17-12.12,18.13-23,27.19-34.4,4.7-5.93,9.32-11.91,14-17.87,2.33-3,4.57-6.1,7-9,2.07-2.39,4.83-3.8,7.31-5.68,4.2-3.19,5.24-8.46,7.26-13,.26-.58-.61-1.09-.86-.5Z" transform="translate(-0.01)"/></g></g></svg>